<?xml version="1.0" standalone="no"?>
<!DOCTYPE svg PUBLIC "-//W3C//DTD SVG 20010904//EN"
 "http://www.w3.org/TR/2001/REC-SVG-20010904/DTD/svg10.dtd">
<svg version="1.0" xmlns="http://www.w3.org/2000/svg"
 width="513.000000pt" height="513.000000pt" viewBox="0 0 513.000000 513.000000"
 preserveAspectRatio="xMidYMid meet">
<metadata>
Created by potrace 1.11, written by Peter Selinger 2001-2013
</metadata>
<g transform="translate(0.000000,513.000000) scale(0.100000,-0.100000)"
fill="#000000" stroke="none">
<path d="M2410 5106 c-25 -7 -61 -21 -80 -31 -19 -10 -368 -257 -775 -549
-407 -293 -761 -546 -787 -564 -31 -21 -54 -48 -72 -84 l-26 -52 0 -1825 0
-1825 21 -43 c27 -55 81 -100 143 -118 75 -22 3387 -22 3462 0 62 18 116 63
143 118 l21 43 0 1829 0 1829 -21 43 c-12 24 -35 54 -53 67 -472 349 -1523
1107 -1559 1124 -101 48 -310 67 -417 38z m245 -241 c82 -33 135 -115 135
-206 -1 -70 -26 -126 -80 -171 -150 -129 -382 -14 -368 182 12 161 164 256
313 195z m75 -1315 l0 -530 385 0 385 0 0 -280 0 -280 -385 0 -385 0 0 -508
c0 -559 1 -572 61 -659 56 -81 148 -116 305 -115 114 1 236 25 329 66 31 15
59 26 61 26 3 0 3 -120 2 -267 l-3 -268 -50 -27 c-270 -146 -749 -157 -1004
-23 -172 90 -284 249 -337 475 -15 66 -18 149 -21 688 l-4 612 -180 0 -179 0
0 280 0 280 180 0 180 0 2 337 3 337 320 193 c176 106 323 192 328 193 4 0 7
-238 7 -530z"/>
</g>
</svg>
